<svg width="520" height="520" viewBox="0 0 520 520" fill="none" xmlns="http://www.w3.org/2000/svg">
  <defs>
    <linearGradient id="grad1" x1="0" y1="0" x2="520" y2="520" gradientUnits="userSpaceOnUse">
      <stop offset="0" stop-color="#FDE68A"/>
      <stop offset="1" stop-color="#FBCFE8"/>
    </linearGradient>
  </defs>
  <rect x="60" y="80" width="400" height="320" rx="30" fill="#fff" stroke="#F9A8D4" stroke-width="18"/>
  <rect x="110" y="110" width="280" height="260" rx="22" fill="url(#grad1)"/>
  <path d="M120 150H380" stroke="#C084FC" stroke-width="16" stroke-linecap="round"/>
  <path d="M120 190H380" stroke="#C084FC" stroke-width="14" stroke-linecap="round" opacity="0.85"/>
  <path d="M120 230H330" stroke="#C084FC" stroke-width="14" stroke-linecap="round" opacity="0.85"/>
  <path d="M170 330H345" stroke="#C084FC" stroke-width="14" stroke-linecap="round" opacity="0.85"/>
  <rect x="330" y="226" width="20" height="120" rx="10" fill="#A78BFA" opacity="0.7"/>
  <path d="M365 280L430 240L420 200L355 240L365 280Z" fill="#F472B6"/>
  <path d="M420 200L440 215L405 255L385 240L420 200Z" fill="#9D174D"/>
  <circle cx="270" cy="160" r="18" fill="#fff" opacity="0.8"/>
  <circle cx="340" cy="130" r="12" fill="#fff" opacity="0.75"/>
  <circle cx="190" cy="360" r="14" fill="#fff" opacity="0.65"/>
</svg>
